<svg width="31" height="28" viewBox="0 0 31 28" fill="none" xmlns="http://www.w3.org/2000/svg">
<path d="M8.19141 15.3066C12.2197 15.3066 15.6328 11.9229 15.6328 7.85059C15.6328 3.77832 12.2637 0.40918 8.19141 0.40918C4.10449 0.40918 0.75 3.77832 0.75 7.85059C0.75 11.9521 4.10449 15.3066 8.19141 15.3066ZM19.1045 4.97949H29.124C29.7393 4.97949 30.252 4.49609 30.252 3.86621C30.252 3.25098 29.7393 2.76758 29.124 2.76758H19.1045C18.4893 2.76758 18.0059 3.25098 18.0059 3.86621C18.0059 4.49609 18.4893 4.97949 19.1045 4.97949ZM7.29785 12.2451C7.06348 12.2451 6.75586 12.1426 6.56543 11.9375L3.75293 8.84668C3.65039 8.72949 3.57715 8.46582 3.57715 8.26074C3.57715 7.7334 3.9873 7.33789 4.48535 7.33789C4.80762 7.33789 5.02734 7.48438 5.18848 7.64551L7.26855 9.88672L11.1211 4.52539C11.2969 4.29102 11.5605 4.12988 11.8975 4.12988C12.3809 4.12988 12.8203 4.51074 12.8203 5.03809C12.8203 5.19922 12.7471 5.38965 12.6152 5.58008L8.07422 11.8936C7.91309 12.1133 7.62012 12.2451 7.29785 12.2451ZM19.1045 12.6553H29.124C29.7393 12.6553 30.252 12.1719 30.252 11.542C30.252 10.9268 29.7393 10.4434 29.124 10.4434H19.1045C18.4893 10.4434 18.0059 10.9268 18.0059 11.542C18.0059 12.1719 18.4893 12.6553 19.1045 12.6553ZM1.83398 20.3311H29.124C29.7393 20.3311 30.252 19.833 30.252 19.2178C30.252 18.6025 29.7393 18.1191 29.124 18.1191H1.83398C1.21875 18.1191 0.735352 18.6025 0.735352 19.2178C0.735352 19.833 1.21875 20.3311 1.83398 20.3311ZM1.83398 27.9922H29.124C29.7393 27.9922 30.252 27.5088 30.252 26.8936C30.252 26.2783 29.7393 25.7803 29.124 25.7803H1.83398C1.21875 25.7803 0.735352 26.2783 0.735352 26.8936C0.735352 27.5088 1.21875 27.9922 1.83398 27.9922Z" fill="white"/>
</svg>
